<?xml version="1.0" encoding="utf-8"?>
<!-- Generator: Adobe Illustrator 28.0.0, SVG Export Plug-In . SVG Version: 6.00 Build 0)  -->
<svg version="1.1" id="LOGO" xmlns="http://www.w3.org/2000/svg" xmlns:xlink="http://www.w3.org/1999/xlink" x="0px" y="0px"
	 viewBox="0 0 370.1 97.2" style="enable-background:new 0 0 370.1 97.2;" xml:space="preserve">
<style type="text/css">
	.st0{fill:#FFFFFF;}
</style>
<path class="st0" d="M85.1,77.3H22.8v-20h42v-15h-42v-22h48v-15h-64v87.5h94.9C95.2,88.9,89.5,83.6,85.1,77.3z"/>
<path class="st0" d="M185.8,77.3h-20.2c6.7-7.8,10.7-18.1,10.7-29.2c0-24.7-19.7-44.8-44-44.8s-44,20-44,44.8s19.7,44.8,44,44.8
	c0.2,0,0.3,0,0.5,0l0,0l62,0l8-15.5h40l7.9,15.5h17.2l-37.1-72.5h49v72.5h40.5c24,0,43.5-19.6,43.5-43.8S344.3,5.3,320.3,5.3H222
	L185.8,77.3L185.8,77.3z M132.3,18.5c16,0,29,13.2,29,29.5s-13,29.2-29,29.2s-29-12.9-29-29.2S116.3,18.5,132.3,18.5z M296.8,20.3
	h23.5c15.7,0,28.5,12.9,28.5,28.8S336,77.3,320.3,77.3h-23.5V20.3z M235.1,62.3h-24.6l12.4-24L235.1,62.3L235.1,62.3z"/>
</svg>
