<?xml version="1.0" encoding="UTF-8"?>
<svg id="_图层_1" data-name="图层 1" xmlns="http://www.w3.org/2000/svg" viewBox="0 0 666.67 609.71">
  <defs>
    <style>
      .cls-1 {
        stroke-width: 0px;
      }
    </style>
  </defs>
  <path class="cls-1" d="m540.77,12.68c16.27,16.27,16.28,42.65,0,58.93,0,0,0,0,0,0l-38.1,38.07h39c69.04,0,125,55.96,125,125v250.03c0,69.04-55.96,125-125,125H125c-69.04,0-125-55.96-125-125h0v-250c0-69.04,55.96-125,125-125h38.87l-38.03-38.07c-16.56-15.98-17.02-42.36-1.04-58.92,15.98-16.56,42.36-17.02,58.92-1.04.35.34.69.68,1.02,1.02l88.4,88.4c2.63,2.63,4.83,5.5,6.6,8.57h107.1c1.77-3.07,4-6,6.63-8.6L481.83,12.68c16.27-16.27,42.65-16.28,58.93,0,0,0,0,0,0,0h0Zm.9,180.67H125c-21.82,0-39.94,16.81-41.57,38.57l-.1,3.13v250c0,21.97,17,39.97,38.57,41.53l3.1.13h416.67c21.82,0,39.94-16.81,41.57-38.57l.1-3.1v-250c0-23-18.67-41.67-41.67-41.67v-.03Zm-314.33,83.33c23,0,41.67,18.67,41.67,41.67v83.33c0,23.01-18.65,41.67-41.67,41.67s-41.67-18.65-41.67-41.67v-83.33c0-23,18.67-41.67,41.67-41.67Zm212,0c23,0,41.67,18.67,41.67,41.67v83.33c0,23.01-18.65,41.67-41.67,41.67s-41.67-18.65-41.67-41.67v-83.33c0-23,18.67-41.67,41.67-41.67Z"/>
</svg>