<?xml version="1.0" encoding="UTF-8"?>
<svg id="_图层_1" data-name="图层 1" xmlns="http://www.w3.org/2000/svg" viewBox="0 0 29.33 28.61">
  <defs>
    <style>
      .cls-1 {
        stroke-width: 0px;
      }
    </style>
  </defs>
  <path class="cls-1" d="m14.67,0C6.56,0,0,6.56,0,14.67c0,6.49,4.2,11.97,10.03,13.91.73.13,1.01-.31,1.01-.7,0-.35-.02-1.5-.02-2.73-3.69.68-4.64-.9-4.93-1.72-.17-.42-.88-1.72-1.5-2.07-.51-.27-1.25-.95-.02-.97,1.16-.02,1.98,1.06,2.25,1.5,1.32,2.22,3.43,1.59,4.27,1.21.13-.95.51-1.6.94-1.96-3.26-.37-6.67-1.63-6.67-7.24,0-1.6.57-2.91,1.5-3.94-.15-.37-.66-1.87.15-3.89,0,0,1.23-.39,4.03,1.5,1.17-.33,2.42-.5,3.67-.5s2.49.17,3.67.5c2.81-1.91,4.03-1.5,4.03-1.5.81,2.02.29,3.52.15,3.89.94,1.03,1.5,2.33,1.5,3.94,0,5.63-3.43,6.87-6.69,7.24.53.46.99,1.34.99,2.71,0,1.96-.02,3.54-.02,4.03,0,.39.28.84,1.01.7,5.79-1.94,9.99-7.44,9.99-13.91C29.33,6.56,22.77,0,14.67,0Z"/>
</svg>