<?xml version="1.0" encoding="UTF-8"?>
<svg id="_图层_1" data-name="图层 1" xmlns="http://www.w3.org/2000/svg" viewBox="0 0 195.89 177.67">
  <defs>
    <style>
      .cls-1 {
        stroke-width: 0px;
      }
    </style>
  </defs>
  <path class="cls-1" d="m191.59,83.2c2.73,2.64,4.16,5.54,4.29,8.71.13,3.17-.91,5.8-3.12,7.91-2.47,2.24-5.33,3.3-8.58,3.17-3.25-.13-5.85-1.06-7.8-2.77-.65-.53-2.63-2.37-5.95-5.54-3.32-3.17-7.28-6.96-11.9-11.38-4.62-4.42-9.56-9.17-14.83-14.25s-10.24-9.86-14.92-14.34c-4.68-4.48-8.71-8.38-12.1-11.67s-5.53-5.34-6.44-6.13c-4.16-3.83-8.26-5.67-12.29-5.54-4.03.13-8,1.98-11.9,5.54-1.3,1.19-3.74,3.46-7.32,6.83s-7.71,7.29-12.39,11.77c-4.68,4.48-9.62,9.17-14.83,14.05-5.2,4.88-10.01,9.43-14.44,13.65-4.42,4.22-8.23,7.82-11.41,10.78s-5.1,4.72-5.76,5.24c-1.95,1.58-4.55,2.44-7.8,2.57s-6.05-.86-8.39-2.97C1.11,96.46-.12,93.59,0,90.22c.13-3.36,1.24-6.03,3.32-8.01.78-.79,3.19-3.1,7.22-6.93,4.03-3.83,8.84-8.38,14.44-13.65,5.59-5.28,11.61-10.95,18.05-17.02,6.44-6.07,12.42-11.74,17.95-17.02,5.53-5.28,10.27-9.79,14.24-13.55,3.97-3.76,6.28-5.97,6.93-6.63C87.08,2.54,92.42.07,98.14,0c5.72-.07,10.6,1.88,14.63,5.84.78.66,2.41,2.21,4.88,4.65,2.47,2.44,5.5,5.41,9.07,8.9,3.58,3.5,7.58,7.42,12,11.77,4.42,4.35,8.91,8.74,13.46,13.16,4.55,4.42,9.01,8.8,13.36,13.16,4.36,4.35,8.36,8.28,12,11.77s6.7,6.5,9.17,9l4.88,4.95Zm-105.54-28.69c3.25-3.03,7.15-4.65,11.71-4.85,4.55-.2,8.65,1.42,12.29,4.85.39.4,1.56,1.52,3.51,3.36l7.41,6.93c2.86,2.77,6.08,5.87,9.66,9.3s7.25,6.86,11.02,10.29c8.71,8.18,18.47,17.35,29.26,27.5v54.51c0,2.9-1.07,5.47-3.22,7.72-2.15,2.24-5.04,3.43-8.68,3.56h-36.87v-47.58c0-4.35-2.02-6.53-6.05-6.53h-37.26c-2.21,0-3.74.66-4.58,1.98-.85,1.32-1.27,2.84-1.27,4.55,0,.79-.03,2.8-.1,6.03s-.1,23.61-.1,27.3v14.25h-35.7c-3.77,0-6.76-.86-8.97-2.57-2.21-1.71-3.32-4.16-3.32-7.32v-56.29c10.66-9.89,20.35-18.86,29.07-26.91,3.64-3.43,7.28-6.83,10.92-10.19,3.64-3.36,6.96-6.43,9.95-9.2,2.99-2.77,5.5-5.11,7.51-7.02,2.02-1.91,3.28-3.13,3.8-3.66h0Z"/>
</svg>