<?xml version="1.0" standalone="no"?>
<!DOCTYPE svg PUBLIC "-//W3C//DTD SVG 20010904//EN"
 "http://www.w3.org/TR/2001/REC-SVG-20010904/DTD/svg10.dtd">
<svg version="1.0" xmlns="http://www.w3.org/2000/svg"
 width="4626.000000pt" height="1173.000000pt" viewBox="0 0 4626.000000 1173.000000"
 preserveAspectRatio="xMidYMid meet">

<g transform="translate(0.000000,1173.000000) scale(0.100000,-0.100000)"
fill="#000000" stroke="none">
<path d="M15455 11713 c-323 -25 -490 -48 -735 -99 -1558 -324 -3023 -1375
-3887 -2789 -769 -1258 -989 -2672 -637 -4090 209 -838 605 -1600 1189 -2285
54 -63 195 -211 312 -327 l214 -213 -4945 0 -4946 0 0 1410 0 1410 2750 0
2750 0 0 950 0 950 -2750 0 -2750 0 0 1465 0 1465 3145 0 3145 0 0 950 0 950
-4155 0 -4155 0 0 -5725 0 -5725 12303 0 12302 0 450 900 450 900 2696 0 2696
0 394 -900 394 -900 1233 0 1232 0 -21 42 c-12 24 -1107 2140 -2434 4703
-1327 2563 -2429 4693 -2449 4733 l-36 72 3205 0 3205 0 0 -4775 0 -4775 2655
0 c2864 0 2718 -2 3075 51 1484 223 2855 1043 3753 2244 933 1247 1322 2833
1071 4365 -146 894 -504 1735 -1047 2459 -220 293 -578 675 -848 905 -965 819
-2146 1309 -3414 1416 -93 8 -1940 10 -6455 8 l-6324 -3 -2411 -4710 -2412
-4710 -1687 -3 -1687 -2 117 127 c888 964 1398 2094 1503 3333 68 796 -53
1562 -370 2353 -73 181 -259 563 -359 737 -625 1083 -1582 1998 -2659 2544
-679 343 -1350 534 -2066 586 -127 9 -501 11 -600 3z m630 -2058 c729 -77
1373 -345 1965 -819 150 -120 442 -409 566 -559 412 -500 703 -1090 834 -1690
181 -828 80 -1659 -294 -2413 -527 -1062 -1543 -1867 -2661 -2109 -304 -66
-690 -92 -985 -66 -1204 107 -2351 879 -3015 2031 -533 924 -645 1936 -324
2929 158 489 423 964 767 1376 191 228 517 527 762 697 503 349 1099 571 1685
627 153 14 547 12 700 -4z m24625 -115 c486 -73 909 -205 1330 -415 1074 -538
1807 -1476 2019 -2585 48 -253 55 -341 56 -680 0 -341 -6 -417 -51 -680 -193
-1129 -871 -2101 -1906 -2732 -333 -204 -741 -383 -1105 -487 l-138 -39 -1582
-6 -1583 -7 0 3826 0 3825 1413 0 c1363 0 1417 -1 1547 -20z m-11665 -4082
c461 -953 840 -1736 842 -1740 2 -5 -755 -8 -1682 -8 -1473 0 -1686 2 -1683
15 5 24 1672 3465 1679 3465 3 0 383 -780 844 -1732z"/>
</g>
</svg>
