<?xml version="1.0" standalone="no"?>
<!DOCTYPE svg PUBLIC "-//W3C//DTD SVG 20010904//EN"
 "http://www.w3.org/TR/2001/REC-SVG-20010904/DTD/svg10.dtd">
<svg version="1.0" xmlns="http://www.w3.org/2000/svg"
 width="4577.000000pt" height="1173.000000pt" viewBox="0 0 4577.000000 1173.000000"
 preserveAspectRatio="xMidYMid meet">

<g transform="translate(0.000000,1173.000000) scale(0.100000,-0.100000)"
fill="#000000" stroke="none">
<path d="M15395 11714 c-930 -73 -1856 -400 -2685 -949 -927 -614 -1668 -1452
-2141 -2420 -361 -741 -539 -1500 -539 -2298 1 -836 198 -1666 576 -2427 284
-571 597 -1004 1065 -1472 l226 -228 -4938 0 -4939 0 2 1403 3 1402 2753 3
2752 2 -2 953 -3 952 -2752 3 -2753 2 0 1460 0 1460 3145 0 3145 0 0 955 0
955 -4155 0 -4155 0 0 -5730 0 -5730 12305 0 12305 0 447 895 448 895 2698 -2
2699 -3 390 -893 391 -892 1233 0 c679 0 1234 2 1234 4 0 2 -1109 2147 -2465
4766 -1356 2619 -2465 4766 -2465 4771 0 5 1243 8 3198 7 l3197 -3 3 -4772 2
-4773 2648 0 2647 0 194 65 c1445 487 2689 1337 3515 2400 387 499 688 1059
880 1640 228 686 310 1465 230 2187 -175 1597 -1093 3019 -2614 4050 -674 457
-1501 841 -2319 1078 l-139 40 -6287 -2 -6287 -3 -2414 -4715 -2413 -4715
-1687 -3 -1686 -2 102 107 c483 509 894 1147 1152 1788 381 947 484 1996 292
2955 -350 1750 -1676 3435 -3359 4270 -595 295 -1165 466 -1815 546 -129 15
-733 28 -865 18z m765 -2068 c644 -89 1188 -304 1714 -679 798 -568 1396
-1488 1585 -2439 163 -817 62 -1605 -300 -2338 -281 -569 -675 -1046 -1187
-1434 -534 -404 -1143 -657 -1787 -743 -185 -24 -620 -24 -800 1 -974 134
-1865 656 -2522 1478 -478 600 -771 1289 -854 2013 -19 162 -16 549 5 725 127
1062 709 2062 1582 2723 221 168 551 355 809 460 295 120 623 203 930 236 55
6 116 13 135 15 83 10 581 -4 690 -18z m24484 -117 c1483 -507 2545 -1583
2870 -2909 74 -302 100 -537 100 -885 0 -279 -14 -434 -60 -685 -196 -1063
-820 -1993 -1780 -2653 -220 -152 -570 -346 -796 -443 l-80 -34 -1574 0 -1574
0 0 3820 0 3820 1401 0 1402 0 91 -31z m-11550 -4178 c432 -893 786 -1628 786
-1633 0 -4 -756 -8 -1680 -8 -924 0 -1680 3 -1680 6 0 7 1546 3205 1633 3379
l50 100 52 -110 c29 -60 406 -841 839 -1734z"/>
</g>
</svg>
