<?xml version="1.0" encoding="UTF-8"?>
<svg id="_图层_1" data-name="图层 1" xmlns="http://www.w3.org/2000/svg" viewBox="0 0 590.58 548.85">
  <defs>
    <style>
      .cls-1 {
        stroke-width: 0px;
      }
    </style>
  </defs>
  <path class="cls-1" d="m254.28,24.2v98.64c0,13.43-10.97,24.07-24.4,24.11-45.99.13-71.7,45.87-76.59,136.07-.28,5.09,3.77,9.37,8.86,9.37h67.93c13.36,0,24.2,10.84,24.2,24.2v207.92c0,13.45-10.9,24.35-24.35,24.35H24.2c-13.37,0-24.2-10.84-24.2-24.2v-208.08c0-46.27,4.66-88.74,13.84-126.23,9.42-38.44,23.88-72.05,42.97-99.9,19.64-28.62,44.21-51.08,73.02-66.72C158.84,7.99,192.57,0,230.09,0c13.35,0,24.19,10.83,24.19,24.2Zm312.1,122.75c13.36,0,24.2-10.84,24.2-24.2V24.35c0-13.44-10.89-24.36-24.32-24.35-37.46.02-71.15,8-100.12,23.73-28.82,15.65-53.39,38.1-73.03,66.72-19.09,27.85-33.55,61.46-42.97,99.91-9.18,37.5-13.83,79.96-13.83,126.22v207.92c0,13.45,10.9,24.35,24.35,24.35h205.72c13.36,0,24.2-10.84,24.2-24.2v-207.92c0-13.45-10.9-24.35-24.35-24.35h-66.68c-5.1,0-9.13-4.29-8.86-9.38,4.83-90.32,30.23-136.06,75.7-136.06Z"/>
</svg>